<mxfile host="app.diagrams.net" modified="2023-04-28T16:58:51.182Z" agent="Mozilla/5.0 (Windows NT 10.0; Win64; x64) AppleWebKit/537.36 (KHTML, like Gecko) Chrome/112.0.0.0 Safari/537.36 Edg/112.0.1722.58" etag="y0qubnB5cWYlL7unk_zY" version="21.2.3" type="device" pages="2">
  <diagram name="Страница 1" id="AdXKdmV-SsOITaSFNNia">
    <mxGraphModel dx="1290" dy="549" grid="1" gridSize="10" guides="1" tooltips="1" connect="1" arrows="1" fold="1" page="1" pageScale="1" pageWidth="827" pageHeight="1169" math="0" shadow="0">
      <root>
        <mxCell id="0" />
        <mxCell id="1" parent="0" />
        <mxCell id="4XfwQuI9NKkFd9gV6jWc-1" value="User" style="text;html=1;strokeColor=none;fillColor=none;align=center;verticalAlign=middle;whiteSpace=wrap;rounded=0;" parent="1" vertex="1">
          <mxGeometry x="150" y="40" width="60" height="30" as="geometry" />
        </mxCell>
        <mxCell id="4XfwQuI9NKkFd9gV6jWc-2" value="Админ" style="text;html=1;strokeColor=none;fillColor=none;align=center;verticalAlign=middle;whiteSpace=wrap;rounded=0;" parent="1" vertex="1">
          <mxGeometry x="270" y="40" width="60" height="30" as="geometry" />
        </mxCell>
        <mxCell id="4XfwQuI9NKkFd9gV6jWc-5" value="" style="endArrow=none;dashed=1;html=1;rounded=0;" parent="1" edge="1">
          <mxGeometry width="50" height="50" relative="1" as="geometry">
            <mxPoint x="240" y="640" as="sourcePoint" />
            <mxPoint x="240" y="40" as="targetPoint" />
          </mxGeometry>
        </mxCell>
        <mxCell id="4XfwQuI9NKkFd9gV6jWc-6" value="" style="endArrow=none;dashed=1;html=1;rounded=0;" parent="1" edge="1">
          <mxGeometry width="50" height="50" relative="1" as="geometry">
            <mxPoint x="520" y="650" as="sourcePoint" />
            <mxPoint x="520" y="50" as="targetPoint" />
          </mxGeometry>
        </mxCell>
        <mxCell id="4XfwQuI9NKkFd9gV6jWc-7" value="" style="ellipse;html=1;shape=startState;fillColor=#000000;strokeColor=#ff0000;" parent="1" vertex="1">
          <mxGeometry x="165" y="70" width="30" height="30" as="geometry" />
        </mxCell>
        <mxCell id="4XfwQuI9NKkFd9gV6jWc-8" value="" style="edgeStyle=orthogonalEdgeStyle;html=1;verticalAlign=bottom;endArrow=open;endSize=8;strokeColor=#ff0000;rounded=0;" parent="1" source="4XfwQuI9NKkFd9gV6jWc-7" edge="1">
          <mxGeometry relative="1" as="geometry">
            <mxPoint x="180" y="160" as="targetPoint" />
          </mxGeometry>
        </mxCell>
        <mxCell id="4XfwQuI9NKkFd9gV6jWc-9" value="Заполнение рег. формы" style="rounded=1;whiteSpace=wrap;html=1;" parent="1" vertex="1">
          <mxGeometry x="135" y="160" width="85" height="30" as="geometry" />
        </mxCell>
        <mxCell id="4XfwQuI9NKkFd9gV6jWc-15" value="" style="edgeStyle=orthogonalEdgeStyle;rounded=0;orthogonalLoop=1;jettySize=auto;html=1;" parent="1" source="4XfwQuI9NKkFd9gV6jWc-11" target="4XfwQuI9NKkFd9gV6jWc-14" edge="1">
          <mxGeometry relative="1" as="geometry" />
        </mxCell>
        <mxCell id="4XfwQuI9NKkFd9gV6jWc-11" value="Просмотр списка новых пользователей" style="rounded=1;whiteSpace=wrap;html=1;" parent="1" vertex="1">
          <mxGeometry x="255" y="160" width="90" height="30" as="geometry" />
        </mxCell>
        <mxCell id="4XfwQuI9NKkFd9gV6jWc-13" value="" style="endArrow=classic;html=1;rounded=0;exitX=1;exitY=0.5;exitDx=0;exitDy=0;entryX=0;entryY=0.5;entryDx=0;entryDy=0;" parent="1" source="4XfwQuI9NKkFd9gV6jWc-9" target="4XfwQuI9NKkFd9gV6jWc-11" edge="1">
          <mxGeometry width="50" height="50" relative="1" as="geometry">
            <mxPoint x="390" y="340" as="sourcePoint" />
            <mxPoint x="440" y="290" as="targetPoint" />
          </mxGeometry>
        </mxCell>
        <mxCell id="4XfwQuI9NKkFd9gV6jWc-19" value="" style="edgeStyle=orthogonalEdgeStyle;rounded=0;orthogonalLoop=1;jettySize=auto;html=1;" parent="1" source="4XfwQuI9NKkFd9gV6jWc-14" target="4XfwQuI9NKkFd9gV6jWc-18" edge="1">
          <mxGeometry relative="1" as="geometry" />
        </mxCell>
        <mxCell id="4XfwQuI9NKkFd9gV6jWc-21" value="" style="edgeStyle=orthogonalEdgeStyle;rounded=0;orthogonalLoop=1;jettySize=auto;html=1;" parent="1" source="4XfwQuI9NKkFd9gV6jWc-14" target="4XfwQuI9NKkFd9gV6jWc-20" edge="1">
          <mxGeometry relative="1" as="geometry" />
        </mxCell>
        <mxCell id="4XfwQuI9NKkFd9gV6jWc-14" value="" style="rhombus;whiteSpace=wrap;html=1;" parent="1" vertex="1">
          <mxGeometry x="267.5" y="250" width="65" height="50" as="geometry" />
        </mxCell>
        <mxCell id="4XfwQuI9NKkFd9gV6jWc-16" value="Добавить бронь?" style="text;html=1;strokeColor=none;fillColor=none;align=center;verticalAlign=middle;whiteSpace=wrap;rounded=0;" parent="1" vertex="1">
          <mxGeometry x="375" y="370" width="130" height="30" as="geometry" />
        </mxCell>
        <mxCell id="4XfwQuI9NKkFd9gV6jWc-32" value="" style="edgeStyle=orthogonalEdgeStyle;rounded=0;orthogonalLoop=1;jettySize=auto;html=1;" parent="1" source="4XfwQuI9NKkFd9gV6jWc-18" edge="1">
          <mxGeometry relative="1" as="geometry">
            <mxPoint x="414" y="428" as="targetPoint" />
            <Array as="points">
              <mxPoint x="178" y="428" />
            </Array>
          </mxGeometry>
        </mxCell>
        <mxCell id="4XfwQuI9NKkFd9gV6jWc-18" value="Запрос на бронь стола" style="rounded=1;whiteSpace=wrap;html=1;" parent="1" vertex="1">
          <mxGeometry x="135" y="340" width="85" height="30" as="geometry" />
        </mxCell>
        <mxCell id="4XfwQuI9NKkFd9gV6jWc-20" value="отказ в регистрации" style="rounded=1;whiteSpace=wrap;html=1;" parent="1" vertex="1">
          <mxGeometry x="257.5" y="340" width="85" height="30" as="geometry" />
        </mxCell>
        <mxCell id="4XfwQuI9NKkFd9gV6jWc-22" value="" style="ellipse;html=1;shape=endState;fillColor=#000000;strokeColor=#ff0000;" parent="1" vertex="1">
          <mxGeometry x="285" y="610" width="30" height="30" as="geometry" />
        </mxCell>
        <mxCell id="4XfwQuI9NKkFd9gV6jWc-23" value="" style="edgeStyle=orthogonalEdgeStyle;rounded=0;orthogonalLoop=1;jettySize=auto;html=1;entryX=0.5;entryY=0;entryDx=0;entryDy=0;" parent="1" target="4XfwQuI9NKkFd9gV6jWc-22" edge="1">
          <mxGeometry relative="1" as="geometry">
            <mxPoint x="300" y="370" as="sourcePoint" />
            <mxPoint x="220.0000000000001" y="285" as="targetPoint" />
          </mxGeometry>
        </mxCell>
        <mxCell id="4XfwQuI9NKkFd9gV6jWc-26" value="Да" style="text;html=1;strokeColor=none;fillColor=none;align=center;verticalAlign=middle;whiteSpace=wrap;rounded=0;" parent="1" vertex="1">
          <mxGeometry x="210" y="250" width="20" height="10" as="geometry" />
        </mxCell>
        <mxCell id="4XfwQuI9NKkFd9gV6jWc-29" value="Нет" style="text;html=1;strokeColor=none;fillColor=none;align=center;verticalAlign=middle;whiteSpace=wrap;rounded=0;" parent="1" vertex="1">
          <mxGeometry x="257.5" y="310" width="20" height="10" as="geometry" />
        </mxCell>
        <mxCell id="4XfwQuI9NKkFd9gV6jWc-30" value="Вход в аккаунт" style="rounded=1;whiteSpace=wrap;html=1;" parent="1" vertex="1">
          <mxGeometry x="135" y="270" width="85" height="30" as="geometry" />
        </mxCell>
        <mxCell id="4XfwQuI9NKkFd9gV6jWc-33" value="" style="rhombus;whiteSpace=wrap;html=1;" parent="1" vertex="1">
          <mxGeometry x="410" y="400" width="60" height="60" as="geometry" />
        </mxCell>
        <mxCell id="4XfwQuI9NKkFd9gV6jWc-34" value="Можно ли зарегать?" style="text;html=1;strokeColor=none;fillColor=none;align=center;verticalAlign=middle;whiteSpace=wrap;rounded=0;" parent="1" vertex="1">
          <mxGeometry x="250" y="230" width="130" height="30" as="geometry" />
        </mxCell>
        <mxCell id="4XfwQuI9NKkFd9gV6jWc-35" value="" style="endArrow=classic;html=1;rounded=0;exitX=0.5;exitY=1;exitDx=0;exitDy=0;" parent="1" source="4XfwQuI9NKkFd9gV6jWc-33" edge="1">
          <mxGeometry width="50" height="50" relative="1" as="geometry">
            <mxPoint x="380" y="440" as="sourcePoint" />
            <mxPoint x="220" y="500" as="targetPoint" />
            <Array as="points">
              <mxPoint x="440" y="500" />
            </Array>
          </mxGeometry>
        </mxCell>
        <mxCell id="4XfwQuI9NKkFd9gV6jWc-36" value="Просмтр брони" style="rounded=1;whiteSpace=wrap;html=1;" parent="1" vertex="1">
          <mxGeometry x="135" y="480" width="85" height="30" as="geometry" />
        </mxCell>
        <mxCell id="4XfwQuI9NKkFd9gV6jWc-37" value="" style="endArrow=classic;html=1;rounded=0;exitX=0.5;exitY=1;exitDx=0;exitDy=0;entryX=0;entryY=0.5;entryDx=0;entryDy=0;" parent="1" source="4XfwQuI9NKkFd9gV6jWc-36" target="4XfwQuI9NKkFd9gV6jWc-22" edge="1">
          <mxGeometry width="50" height="50" relative="1" as="geometry">
            <mxPoint x="380" y="440" as="sourcePoint" />
            <mxPoint x="430" y="390" as="targetPoint" />
            <Array as="points">
              <mxPoint x="178" y="625" />
            </Array>
          </mxGeometry>
        </mxCell>
        <mxCell id="4XfwQuI9NKkFd9gV6jWc-38" value="" style="endArrow=classic;html=1;rounded=0;exitX=1;exitY=0.5;exitDx=0;exitDy=0;entryX=1;entryY=0.5;entryDx=0;entryDy=0;" parent="1" source="4XfwQuI9NKkFd9gV6jWc-33" target="4XfwQuI9NKkFd9gV6jWc-22" edge="1">
          <mxGeometry width="50" height="50" relative="1" as="geometry">
            <mxPoint x="390" y="540" as="sourcePoint" />
            <mxPoint x="440" y="490" as="targetPoint" />
            <Array as="points">
              <mxPoint x="490" y="430" />
              <mxPoint x="490" y="625" />
            </Array>
          </mxGeometry>
        </mxCell>
        <mxCell id="4XfwQuI9NKkFd9gV6jWc-39" value="да" style="text;html=1;strokeColor=none;fillColor=none;align=center;verticalAlign=middle;whiteSpace=wrap;rounded=0;" parent="1" vertex="1">
          <mxGeometry x="370" y="470" width="60" height="30" as="geometry" />
        </mxCell>
        <mxCell id="4XfwQuI9NKkFd9gV6jWc-40" value="нет" style="text;html=1;strokeColor=none;fillColor=none;align=center;verticalAlign=middle;whiteSpace=wrap;rounded=0;" parent="1" vertex="1">
          <mxGeometry x="460" y="400" width="60" height="30" as="geometry" />
        </mxCell>
      </root>
    </mxGraphModel>
  </diagram>
  <diagram id="cFqZxj94cXxk-y-nNJ-O" name="Страница 2">
    <mxGraphModel dx="1290" dy="549" grid="1" gridSize="10" guides="1" tooltips="1" connect="1" arrows="1" fold="1" page="1" pageScale="1" pageWidth="827" pageHeight="1169" math="0" shadow="0">
      <root>
        <mxCell id="0" />
        <mxCell id="1" parent="0" />
      </root>
    </mxGraphModel>
  </diagram>
</mxfile>
